
<svg width="64" height="64" viewBox="0 0 64 64" fill="none" xmlns="http://www.w3.org/2000/svg">
  <circle cx="32" cy="32" r="30" fill="white" stroke="white" stroke-width="2"/>
  <path d="M32 21C28.13 21 25 24.13 25 28C25 31.87 28.13 35 32 35C35.87 35 39 31.87 39 28C39 24.13 35.87 21 32 21ZM32 33C29.24 33 27 30.76 27 28C27 25.24 29.24 23 32 23C34.76 23 37 25.24 37 28C37 30.76 34.76 33 32 33Z" fill="#1976D2"/>
  <path d="M32 15C23.16 15 16 22.16 16 31C16 35.7 18.13 39.92 21.5 42.75L23 18C23 16.9 23.9 16 25 16H39C40.1 16 41 16.9 41 18L42.5 42.75C45.87 39.92 48 35.7 48 31C48 22.16 40.84 15 32 15ZM39 44.47L37.25 18H26.75L25 44.47C27.13 45.43 29.49 46 32 46C34.51 46 36.87 45.43 39 44.47Z" fill="#1976D2"/>
  <path d="M36 39C36 36.24 34.21 33.93 31.67 33.23C31.78 33.16 31.89 33.08 32 33C32.34 33 32.67 33.03 33 33.08C35.25 33.47 37 35.47 37 38C37 40.76 34.76 43 32 43C31.32 43 30.68 42.87 30.09 42.65C30.61 41.57 36 39.67 36 39Z" fill="#1976D2"/>
  <path d="M32 38.13L30.97 39.67L32 41.21L33.03 39.67L32 38.13Z" fill="#1976D2"/>
</svg>
